<svg width="70" height="70" viewBox="0 0 70 70" fill="none" xmlns="http://www.w3.org/2000/svg">
<circle cx="35" cy="35" r="34.5" stroke="white"/>
<g clip-path="url(#clip0_45_22)">
<path d="M49.5781 20.6659C46.8186 19.4025 43.9055 18.5063 40.9131 18C40.5037 18.732 40.1332 19.4851 39.8032 20.2563C36.6157 19.7759 33.3743 19.7759 30.1869 20.2563C29.8567 19.4852 29.4862 18.7321 29.0769 18C26.0826 18.5106 23.1676 19.4089 20.4053 20.6725C14.9216 28.7857 13.4351 36.6975 14.1784 44.4969C17.3898 46.8697 20.9842 48.6742 24.8055 49.832C25.666 48.6747 26.4274 47.447 27.0816 46.1619C25.839 45.6978 24.6396 45.1252 23.4974 44.4507C23.798 44.2327 24.092 44.008 24.3761 43.79C27.6997 45.353 31.3272 46.1634 35 46.1634C38.6727 46.1634 42.3003 45.353 45.6239 43.79C45.9112 44.0245 46.2053 44.2492 46.5026 44.4507C45.3581 45.1262 44.1566 45.6999 42.9117 46.1652C43.5652 47.4497 44.3266 48.6764 45.1878 49.832C49.0124 48.6788 52.6096 46.8752 55.8216 44.5002C56.6937 35.4554 54.3317 27.6163 49.5781 20.6659ZM28.0231 39.7003C25.9518 39.7003 24.2406 37.8207 24.2406 35.5083C24.2406 33.1958 25.8924 31.2997 28.0165 31.2997C30.1406 31.2997 31.8386 33.1958 31.8022 35.5083C31.7659 37.8207 30.134 39.7003 28.0231 39.7003ZM41.9768 39.7003C39.9023 39.7003 38.1977 37.8207 38.1977 35.5083C38.1977 33.1958 39.8494 31.2997 41.9768 31.2997C44.1043 31.2997 45.789 33.1958 45.7527 35.5083C45.7163 37.8207 44.0877 39.7003 41.9768 39.7003Z" fill="white"/>
</g>
<defs>
<clipPath id="clip0_45_22">
<rect width="42" height="31.832" fill="white" transform="translate(14 18)"/>
</clipPath>
</defs>
</svg>
