<svg width="70" height="70" viewBox="0 0 70 70" fill="none" xmlns="http://www.w3.org/2000/svg">
<path fill-rule="evenodd" clip-rule="evenodd" d="M35.029 0C15.6589 0 0 16.0417 0 35.8874C0 51.7511 10.0332 65.1795 23.9518 69.9322C25.692 70.2895 26.3294 69.16 26.3294 68.2099C26.3294 67.3779 26.2721 64.5261 26.2721 61.5548C16.5279 63.6942 14.4987 57.2768 14.4987 57.2768C12.9328 53.1176 10.6125 52.0486 10.6125 52.0486C7.42324 49.8502 10.8448 49.8502 10.8448 49.8502C14.3826 50.0879 16.2389 53.534 16.2389 53.534C19.3701 58.9998 24.4157 57.4554 26.4456 56.5046C26.7353 54.1873 27.6638 52.5831 28.6497 51.6921C20.878 50.8601 12.7012 47.7706 12.7012 33.9857C12.7012 30.0643 14.0922 26.8559 16.2963 24.3607C15.9485 23.4697 14.7303 19.7852 16.6447 14.8539C16.6447 14.8539 19.6024 13.903 26.2714 18.5376C29.1266 17.752 32.0711 17.3524 35.029 17.3491C37.9866 17.3491 41.0017 17.7654 43.7858 18.5376C50.4555 13.903 53.4132 14.8539 53.4132 14.8539C55.3276 19.7852 54.1087 23.4697 53.7609 24.3607C56.0231 26.8559 57.3567 30.0643 57.3567 33.9857C57.3567 47.7706 49.1799 50.8003 41.3501 51.6921C42.6264 52.8208 43.7278 54.9595 43.7278 58.3465C43.7278 63.159 43.6704 67.0214 43.6704 68.2092C43.6704 69.16 44.3085 70.2895 46.048 69.9329C59.9667 65.1787 69.9998 51.7511 69.9998 35.8874C70.0572 16.0417 54.341 0 35.029 0Z" fill="white"/>
</svg>
